<?xml version="1.0" encoding="UTF-8" standalone="no"?>
<!-- Uploaded to: SVG Repo, www.svgrepo.com, Generator: SVG Repo Mixer Tools -->

<svg
   width="800px"
   height="800px"
   viewBox="0 0 24 24"
   fill="none"
   version="1.1"
   id="svg1"
   sodipodi:docname="check_checked.svg"
   inkscape:version="1.3 (0e150ed6c4, 2023-07-21)"
   xmlns:inkscape="http://www.inkscape.org/namespaces/inkscape"
   xmlns:sodipodi="http://sodipodi.sourceforge.net/DTD/sodipodi-0.dtd"
   xmlns="http://www.w3.org/2000/svg"
   xmlns:svg="http://www.w3.org/2000/svg">
  <defs
     id="defs1" />
  <sodipodi:namedview
     id="namedview1"
     pagecolor="#ffffff"
     bordercolor="#000000"
     borderopacity="0.25"
     inkscape:showpageshadow="2"
     inkscape:pageopacity="0.0"
     inkscape:pagecheckerboard="0"
     inkscape:deskcolor="#d1d1d1"
     inkscape:zoom="1.47625"
     inkscape:cx="400"
     inkscape:cy="400"
     inkscape:window-width="2560"
     inkscape:window-height="1377"
     inkscape:window-x="-8"
     inkscape:window-y="-8"
     inkscape:window-maximized="1"
     inkscape:current-layer="svg1" />
  <path
     d="M4 12.6111L8.92308 17.5L20 6.5"
     stroke="#000000"
     stroke-width="2"
     stroke-linecap="round"
     stroke-linejoin="round"
     id="path1" />
  <path
     style="fill:#00ff00;stroke-width:0.677392"
     d="m 287.75458,614.78015 c -2.12448,-0.67928 -5.32516,-2.08769 -7.11262,-3.12979 -2.0654,-1.20414 -31.27244,-29.72809 -80.13392,-78.25976 -99.89936,-99.22503 -94.32299,-93.53035 -96.81249,-98.86652 -6.091972,-13.0579 -3.59161,-27.05658 6.65929,-37.2831 5.15333,-5.14108 9.79163,-7.63615 17.01087,-9.15063 6.46063,-1.35533 13.15095,-0.49171 19.95479,2.57588 4.45453,2.00838 6.46092,3.83063 31.84969,28.92673 14.90263,14.73083 47.59513,47.21136 72.65001,72.17896 l 45.55432,45.39562 34.71664,-34.58669 c 19.09415,-19.02268 78.61163,-78.14275 132.26108,-131.37793 53.64945,-53.23518 116.59611,-115.73633 139.88146,-138.89144 31.51958,-31.34329 43.28894,-42.62917 46.06266,-44.17048 16.47533,-9.155 37.33273,-2.90434 45.66167,13.68415 5.50638,10.9669 4.71091,23.01527 -2.19133,33.19055 -3.53176,5.20651 -373.2436,372.30911 -378.39184,375.72134 -7.86091,5.21017 -18.91123,6.82774 -27.62028,4.04311 z"
     id="path2"
     transform="scale(0.03)" />
</svg>
