<?xml version="1.0" encoding="UTF-8" standalone="no"?>
<!-- Uploaded to: SVG Repo, www.svgrepo.com, Generator: SVG Repo Mixer Tools -->

<svg
   width="800px"
   height="800px"
   viewBox="0 0 24 24"
   fill="none"
   version="1.1"
   id="svg1"
   sodipodi:docname="euro_checked.svg"
   inkscape:version="1.3 (0e150ed6c4, 2023-07-21)"
   xmlns:inkscape="http://www.inkscape.org/namespaces/inkscape"
   xmlns:sodipodi="http://sodipodi.sourceforge.net/DTD/sodipodi-0.dtd"
   xmlns="http://www.w3.org/2000/svg"
   xmlns:svg="http://www.w3.org/2000/svg">
  <defs
     id="defs1" />
  <sodipodi:namedview
     id="namedview1"
     pagecolor="#ffffff"
     bordercolor="#000000"
     borderopacity="0.25"
     inkscape:showpageshadow="2"
     inkscape:pageopacity="0.0"
     inkscape:pagecheckerboard="0"
     inkscape:deskcolor="#d1d1d1"
     inkscape:zoom="1.47625"
     inkscape:cx="400"
     inkscape:cy="400"
     inkscape:window-width="2560"
     inkscape:window-height="1377"
     inkscape:window-x="-8"
     inkscape:window-y="-8"
     inkscape:window-maximized="1"
     inkscape:current-layer="svg1" />
  <path
     d="M19 7.11111C17.775 5.21864 15.8556 4 13.6979 4C9.99875 4 7 7.58172 7 12C7 16.4183 9.99875 20 13.6979 20C15.8556 20 17.775 18.7814 19 16.8889M5 10H14M5 14H14"
     stroke="#000000"
     stroke-width="2"
     stroke-linecap="round"
     stroke-linejoin="round"
     id="path1" />
  <path
     style="fill:#00ff00;stroke-width:0.677392"
     d="m 435.22439,698.68324 c -66.66492,-6.79285 -127.86625,-43.08446 -171.8432,-101.90085 -18.99257,-25.40136 -35.96304,-58.29298 -45.89475,-88.9517 l -2.56412,-7.91536 -27.69825,-0.3571 c -29.4608,-0.37983 -28.87396,-0.31585 -35.89282,-3.91291 -12.04183,-6.17123 -19.2449,-20.22126 -17.2324,-33.61281 1.45644,-9.69133 7.90167,-19.10993 16.40722,-23.97631 6.64135,-3.79979 9.55253,-4.1866 31.50956,-4.1866 h 19.8343 l -0.50159,-7.28196 c -0.64811,-9.40901 -0.64811,-43.76627 0,-53.17528 l 0.50159,-7.28196 h -19.8343 c -21.95703,0 -24.86821,-0.38681 -31.50956,-4.1866 -8.50555,-4.86638 -14.95078,-14.28498 -16.40722,-23.97631 -2.0125,-13.39155 5.19057,-27.44158 17.2324,-33.61281 7.01825,-3.59674 6.43491,-3.53309 35.8619,-3.91291 l 27.66732,-0.3571 2.60838,-7.94904 c 14.88232,-45.35397 40.62047,-87.87478 72.47,-119.7243 20.5062,-20.5062 42.19926,-36.11029 67.38545,-48.47118 23.61339,-11.58899 43.39269,-17.70185 70.44877,-21.77244 6.53197,-0.98274 12.25361,-1.21879 29.12786,-1.20169 22.60294,0.0229 30.52075,0.80555 48.05111,4.74963 58.80288,13.22982 111.21362,49.75985 149.92194,104.49488 7.15478,10.11714 10.10541,16.05249 11.02621,22.17989 3.05077,20.30118 -14.22001,38.80455 -34.89122,37.38136 -9.38457,-0.64612 -18.56542,-5.69274 -23.89784,-13.13639 -1.56347,-2.18249 -5.2572,-7.32125 -8.20827,-11.41947 -19.53607,-27.13013 -43.96895,-48.38164 -70.87576,-61.64713 -16.54297,-8.15595 -31.57886,-12.94898 -49.20589,-15.6855 -10.68116,-1.65821 -33.83679,-1.65821 -44.51795,0 -35.41357,5.4978 -67.41673,21.79193 -94.96945,48.35288 -21.45529,20.68298 -38.81193,46.26118 -51.53699,75.94923 -1.81069,4.2244 -3.29216,7.80611 -3.29216,7.95935 0,0.15324 41.84959,0.27862 92.99908,0.27862 102.31905,0 96.64926,-0.22497 104.879,4.16144 11.94496,6.36659 18.94859,20.29908 16.84551,33.51112 -2.07735,13.05037 -12.501,24.40825 -25.05382,27.2993 -2.02924,0.46735 -36.93363,0.70758 -104.41084,0.71861 l -101.36257,0.0166 -0.36328,2.20152 c -0.19981,1.21084 -0.74959,8.8315 -1.22175,16.9348 -0.69302,11.89392 -0.69302,17.57264 0,29.46656 0.47216,8.1033 1.02194,15.72396 1.22175,16.9348 l 0.36328,2.20152 101.36257,0.0166 c 67.47721,0.011 102.3816,0.25126 104.41084,0.71861 12.59921,2.90173 22.96879,14.2007 25.05382,27.2993 2.10308,13.21204 -4.90055,27.14453 -16.84551,33.51112 -8.22974,4.38641 -2.55995,4.16144 -104.879,4.16144 -51.14949,0 -92.99908,0.12538 -92.99908,0.27862 0,0.15324 1.48147,3.73495 3.29216,7.95935 12.59183,29.3772 30.03321,55.17901 50.982,75.41995 9.76588,9.43587 16.86164,15.14249 28.33298,22.78616 15.55256,10.36309 33.12808,18.23101 50.59536,22.64969 14.67221,3.71162 22.45273,4.64094 38.85508,4.64094 16.40234,0 24.18286,-0.92932 38.85507,-4.64094 22.57537,-5.71087 45.13392,-17.10817 64.78591,-32.73192 13.32244,-10.59163 30.37193,-29.00578 40.92683,-44.20266 9.15662,-13.18364 13.13646,-16.89136 21.24676,-19.79404 19.06383,-6.82294 40.36105,6.04309 43.50086,26.27965 1.55795,10.04126 -1.0294,17.46401 -11.00369,31.56804 -19.86606,28.09136 -43.67588,51.82042 -69.61608,69.37997 -20.52168,13.89162 -44.78451,25.33275 -67.08583,31.63431 -22.46073,6.3466 -34.09088,8.00116 -58.22287,8.28308 -10.24556,0.11969 -21.37172,-0.0619 -24.72481,-0.40359 z"
     id="path2"
     transform="scale(0.03)" />
</svg>
