<?xml version="1.0" encoding="UTF-8" standalone="no"?>
<!-- Uploaded to: SVG Repo, www.svgrepo.com, Generator: SVG Repo Mixer Tools -->

<svg
   width="800px"
   height="800px"
   viewBox="0 0 24 24"
   fill="none"
   version="1.1"
   id="svg1"
   sodipodi:docname="house_checked.svg"
   inkscape:version="1.3 (0e150ed6c4, 2023-07-21)"
   xmlns:inkscape="http://www.inkscape.org/namespaces/inkscape"
   xmlns:sodipodi="http://sodipodi.sourceforge.net/DTD/sodipodi-0.dtd"
   xmlns="http://www.w3.org/2000/svg"
   xmlns:svg="http://www.w3.org/2000/svg">
  <defs
     id="defs1" />
  <sodipodi:namedview
     id="namedview1"
     pagecolor="#ffffff"
     bordercolor="#000000"
     borderopacity="0.25"
     inkscape:showpageshadow="2"
     inkscape:pageopacity="0.0"
     inkscape:pagecheckerboard="0"
     inkscape:deskcolor="#d1d1d1"
     inkscape:zoom="1.47625"
     inkscape:cx="400"
     inkscape:cy="400"
     inkscape:window-width="2560"
     inkscape:window-height="1377"
     inkscape:window-x="-8"
     inkscape:window-y="-8"
     inkscape:window-maximized="1"
     inkscape:current-layer="svg1" />
  <path
     d="M5 9.77746V16.2C5 17.8802 5 18.7203 5.32698 19.362C5.6146 19.9265 6.07354 20.3854 6.63803 20.673C7.27976 21 8.11984 21 9.8 21H14.2C15.8802 21 16.7202 21 17.362 20.673C17.9265 20.3854 18.3854 19.9265 18.673 19.362C19 18.7203 19 17.8802 19 16.2V5.00002M21 12L15.5668 5.96399C14.3311 4.59122 13.7133 3.90484 12.9856 3.65144C12.3466 3.42888 11.651 3.42893 11.0119 3.65159C10.2843 3.90509 9.66661 4.59157 8.43114 5.96452L3 12M14 21V15H10V21"
     stroke="#000000"
     stroke-width="2"
     stroke-linecap="round"
     stroke-linejoin="round"
     id="path1" />
  <path
     style="fill:#00ff00;stroke-width:0.677392"
     d="m 282.13378,732.59251 c -31.23893,-0.86444 -46.35406,-2.98772 -63.1194,-8.8666 -28.63987,-10.04278 -55.58569,-34.027 -70.23185,-62.51273 -7.16399,-13.93344 -11.2656,-29.08975 -13.3117,-49.18947 -1.41612,-13.91126 -1.97961,-48.77064 -2.00195,-123.84799 l -0.0226,-76.09184 -3.52354,3.94959 c -9.84511,11.03556 -15.75294,14.93395 -24.9937,16.49261 -20.21204,3.4092 -39.254433,-14.23029 -37.672372,-34.89695 0.40676,-5.31356 2.236803,-10.77468 5.118505,-15.2744 C 74.136501,379.60438 256.95081,175.94817 281.82508,149.02625 295.00811,134.758 312.10431,118.00911 319.72904,111.89233 344.29746,92.182822 369.06191,83.389345 400,83.389345 c 25.89751,0 48.46839,6.525011 68.28804,19.741375 19.32129,12.88405 32.15741,25.88827 99.70519,101.01088 l 31.83742,35.40769 0.37166,-39.50369 c 0.27934,-29.68992 0.59018,-40.17682 1.25124,-42.21325 3.80662,-11.72641 13.39931,-20.68516 25.03013,-23.37602 4.53439,-1.04906 12.87149,-0.56165 17.36693,1.01531 11.23643,3.94165 20.10668,14.46801 21.98216,26.08636 0.46458,2.87797 0.71254,29.98179 0.71588,78.2513 l 0.005,73.84825 30.11747,33.47645 c 31.14721,34.62101 33.17566,37.21801 35.22973,45.10414 5.75169,22.08222 -14.35666,44.07855 -36.82995,40.28794 -9.21988,-1.55513 -15.16242,-5.46906 -24.92253,-16.41472 l -3.45235,-3.87171 -0.34081,90.91658 c -0.21336,56.91769 -0.62064,94.46301 -1.08909,100.40008 -1.97698,25.05549 -5.68808,40.69561 -13.29827,56.04439 -16.9732,34.23285 -48.78312,59.83582 -84.65214,68.13433 -7.46615,1.72734 -18.58807,3.2448 -31.16003,4.25144 -11.34168,0.90813 -224.70965,1.41718 -254.02202,0.60604 z M 300.09643,582.7265 c 0.01,-71.48137 0.16208,-84.88059 1.00914,-88.9077 2.65749,-12.63429 12.05099,-22.5008 24.51225,-25.74654 5.81933,-1.51575 142.94503,-1.51575 148.76436,0 5.75742,1.49961 10.42403,4.1158 14.81875,8.30765 4.30037,4.10185 6.64456,7.67812 8.89933,13.57666 l 1.47637,3.86223 0.18676,86.64349 0.18676,86.64348 15.9412,-0.4612 c 32.64721,-0.94455 43.06352,-3.0813 55.27047,-11.33792 11.92935,-8.06886 21.63158,-20.99314 24.86466,-33.12206 3.92244,-14.71509 4.13002,-22.78177 4.13681,-160.75698 l 0.006,-123.16172 -63.55155,-70.5724 C 464.57733,187.69435 455.90067,178.29002 445.42924,168.85737 427.9072,153.07354 416.7062,148.6606 396.42189,149.5496 c -17.35003,0.76039 -25.7946,4.75329 -42.96752,20.31659 -9.76438,8.84916 -20.14159,20.11695 -89.97116,97.6925 l -63.65256,70.71335 0.002,123.49734 c 0.003,137.94708 0.20117,145.63687 4.14047,160.41521 4.03503,15.13743 17.64721,30.63726 33.36601,37.99297 9.14546,4.27967 24.6036,6.20844 52.75361,6.58223 l 9.99153,0.13267 z m 133.43448,17.10415 V 532.76884 H 400 366.46909 v 67.06181 67.06181 H 400 433.53091 Z"
     id="path2"
     transform="scale(0.03)" />
</svg>
