<?xml version="1.0" encoding="UTF-8" standalone="no"?>
<!-- Uploaded to: SVG Repo, www.svgrepo.com, Generator: SVG Repo Mixer Tools -->

<svg
   width="800px"
   height="800px"
   viewBox="0 0 24 24"
   fill="none"
   version="1.1"
   id="svg1"
   sodipodi:docname="rule_unchecked.svg"
   inkscape:version="1.3 (0e150ed6c4, 2023-07-21)"
   xmlns:inkscape="http://www.inkscape.org/namespaces/inkscape"
   xmlns:sodipodi="http://sodipodi.sourceforge.net/DTD/sodipodi-0.dtd"
   xmlns="http://www.w3.org/2000/svg"
   xmlns:svg="http://www.w3.org/2000/svg">
  <defs
     id="defs1" />
  <sodipodi:namedview
     id="namedview1"
     pagecolor="#ffffff"
     bordercolor="#000000"
     borderopacity="0.25"
     inkscape:showpageshadow="2"
     inkscape:pageopacity="0.0"
     inkscape:pagecheckerboard="0"
     inkscape:deskcolor="#d1d1d1"
     inkscape:zoom="1.47625"
     inkscape:cx="400"
     inkscape:cy="400"
     inkscape:window-width="2560"
     inkscape:window-height="1377"
     inkscape:window-x="-8"
     inkscape:window-y="-8"
     inkscape:window-maximized="1"
     inkscape:current-layer="svg1" />
  <path
     d="M12 14.0709C11.6734 14.0242 11.3395 14 11 14C7.13401 14 4 17.134 4 21H14M17.997 18C18.997 17 19.997 16.6046 19.997 15.5C19.997 14.3954 19.1016 13.5 17.997 13.5C17.0651 13.5 16.282 14.1374 16.06 15M17.997 21H18.007M15 7C15 9.20914 13.2091 11 11 11C8.79086 11 7 9.20914 7 7C7 4.79086 8.79086 3 11 3C13.2091 3 15 4.79086 15 7Z"
     stroke="#000000"
     stroke-width="2"
     stroke-linecap="round"
     stroke-linejoin="round"
     id="path1" />
  <path
     style="fill:#ff0000;stroke-width:0.677392"
     d="m 128.38495,732.55449 c -13.70497,-2.29128 -24.65104,-12.93243 -27.47738,-26.71198 -1.577701,-7.69193 0.36746,-35.07677 3.82518,-53.85267 19.08132,-103.61411 97.47832,-186.26962 200.09367,-210.9627 20.2806,-4.88027 39.88729,-7.15754 61.62454,-7.15754 14.69838,0 33.27142,1.41692 40.59186,3.0967 12.10732,2.77821 22.35465,12.86242 25.07553,24.67638 1.47715,6.41371 0.66056,14.48788 -2.12378,20.99915 -2.89528,6.77072 -10.85142,14.27141 -17.97732,16.94822 -6.55805,2.4635 -10.73951,2.82986 -19.67401,1.72375 -48.5224,-6.00719 -96.56656,5.18558 -136.62774,31.82994 -15.98562,10.63189 -33.24706,26.30881 -44.70788,40.60386 -15.80453,19.71296 -28.84577,44.23651 -36.02448,67.74266 -2.06176,6.75109 -5.61633,21.83456 -5.6271,23.87807 l -0.008,1.52413 h 149.57923 c 104.50505,0 150.79044,0.22123 153.59865,0.73415 10.77796,1.96861 20.65526,10.05451 24.64424,20.17462 7.72763,19.60516 -4.82078,41.45927 -25.70527,44.76787 -5.37809,0.85202 -337.98099,0.83785 -343.07991,-0.0146 z"
     id="path2"
     transform="scale(0.03)" />
  <path
     style="fill:#ff0000;stroke-width:0.677392"
     d="m 592.18006,631.96842 c -6.08494,-1.63785 -11.10946,-4.50502 -15.3764,-8.77434 -10.58569,-10.59158 -12.76492,-25.70239 -5.63573,-39.07813 2.75028,-5.16005 13.87281,-15.92535 33.09224,-32.02937 25.28569,-21.18698 29.10856,-25.85678 29.09335,-35.5388 -0.0232,-14.73568 -9.00999,-27.18467 -23.02329,-31.89297 -3.75827,-1.26272 -5.50206,-1.4383 -11.90794,-1.19897 -6.90965,0.25816 -7.90358,0.47131 -12.53175,2.68754 -9.30786,4.45711 -15.28023,11.45726 -18.58587,21.78431 -4.07203,12.72134 -11.64981,20.35183 -23.6861,23.85087 -5.31825,1.54607 -14.7615,1.08074 -19.90228,-0.98071 -9.38134,-3.76189 -16.49877,-11.35097 -19.75148,-21.06034 -1.24626,-3.72008 -1.4254,-5.45377 -1.15492,-11.17697 0.39397,-8.33614 2.21331,-14.13593 8.28717,-26.41829 13.82532,-27.95714 40.44019,-47.88995 71.64735,-53.65923 8.63327,-1.59603 26.40866,-1.56328 34.67386,0.0639 36.95062,7.27449 65.70974,32.49152 77.22208,67.71109 3.33784,10.21144 4.6636,18.79827 4.67092,30.25342 0.0192,30.01519 -12.48004,52.36705 -43.93807,78.57266 -13.28784,11.06922 -24.27413,20.59197 -30.41966,26.3673 -10.89124,10.23515 -21.35074,13.59161 -32.77348,10.51703 z"
     id="path3"
     transform="scale(0.03)" />
  <path
     style="fill:#ff0000;stroke-width:0.677392"
     d="m 361.38865,399.50914 c -34.13538,-1.10058 -67.26482,-12.92777 -95.65284,-34.14801 -13.17056,-9.84508 -29.73597,-27.8593 -39.159,-42.58382 -41.18448,-64.35533 -32.95651,-148.8646 19.86014,-203.98304 51.06803,-53.293604 129.51038,-66.903274 194.88396,-33.812176 32.40693,16.403886 57.7271,41.746636 73.87123,73.937106 32.17872,64.16254 19.69357,141.06624 -31.17139,192.0037 -28.22567,28.26589 -68.22824,46.41366 -106.03599,48.10481 -4.28451,0.19166 -8.70449,0.41278 -9.82219,0.49139 -1.11769,0.0786 -4.16596,0.0741 -6.77392,-0.01 z m 24.04742,-67.5878 c 20.48099,-4.02105 36.96621,-12.83399 51.86826,-27.72862 14.80638,-14.79901 23.40536,-30.62573 27.85691,-51.27164 1.74754,-8.1049 1.7449,-30.9992 -0.005,-39.20389 -4.34853,-20.39454 -13.14331,-36.58582 -27.81191,-51.202 -14.7277,-14.67507 -30.00315,-23.01568 -50.37374,-27.50475 -9.77403,-2.1539 -30.74929,-2.15946 -40.61268,-0.0108 -40.64834,8.85507 -71.00849,40.0909 -78.52973,80.79479 -1.78006,9.63342 -1.65351,26.52879 0.27123,36.21139 6.33767,31.88235 25.8113,57.33817 54.67741,71.47399 10.42829,5.10676 19.32982,7.66516 33.8696,9.73448 4.45295,0.63375 23.28298,-0.21194 28.78916,-1.29298 z"
     id="path4"
     transform="scale(0.03)" />
  <path
     style="fill:#ff0000;stroke-width:0.677392"
     d="m 595.08891,732.57311 c -7.80095,-1.36202 -13.60058,-4.50425 -19.15676,-10.37908 -15.05123,-15.91446 -10.30591,-41.84235 9.42435,-51.49361 13.07732,-6.39691 27.09894,-4.26627 37.47146,5.69393 20.60235,19.7834 8.31777,53.94594 -20.28774,56.41876 -2.23539,0.19324 -5.58848,0.0852 -7.45131,-0.24 z"
     id="path5"
     transform="scale(0.03)" />
</svg>
