<?xml version="1.0" encoding="UTF-8" standalone="no"?>
<!-- Uploaded to: SVG Repo, www.svgrepo.com, Generator: SVG Repo Mixer Tools -->

<svg
   width="800px"
   height="800px"
   viewBox="0 0 24 24"
   fill="none"
   version="1.1"
   id="svg1"
   sodipodi:docname="rule_checked.svg"
   inkscape:version="1.3 (0e150ed6c4, 2023-07-21)"
   xmlns:inkscape="http://www.inkscape.org/namespaces/inkscape"
   xmlns:sodipodi="http://sodipodi.sourceforge.net/DTD/sodipodi-0.dtd"
   xmlns="http://www.w3.org/2000/svg"
   xmlns:svg="http://www.w3.org/2000/svg">
  <defs
     id="defs1" />
  <sodipodi:namedview
     id="namedview1"
     pagecolor="#ffffff"
     bordercolor="#000000"
     borderopacity="0.25"
     inkscape:showpageshadow="2"
     inkscape:pageopacity="0.0"
     inkscape:pagecheckerboard="0"
     inkscape:deskcolor="#d1d1d1"
     inkscape:zoom="1.47625"
     inkscape:cx="400"
     inkscape:cy="400"
     inkscape:window-width="2560"
     inkscape:window-height="1377"
     inkscape:window-x="-8"
     inkscape:window-y="-8"
     inkscape:window-maximized="1"
     inkscape:current-layer="svg1" />
  <path
     d="M12 14.0709C11.6734 14.0242 11.3395 14 11 14C7.13401 14 4 17.134 4 21H14M17.997 18C18.997 17 19.997 16.6046 19.997 15.5C19.997 14.3954 19.1016 13.5 17.997 13.5C17.0651 13.5 16.282 14.1374 16.06 15M17.997 21H18.007M15 7C15 9.20914 13.2091 11 11 11C8.79086 11 7 9.20914 7 7C7 4.79086 8.79086 3 11 3C13.2091 3 15 4.79086 15 7Z"
     stroke="#000000"
     stroke-width="2"
     stroke-linecap="round"
     stroke-linejoin="round"
     id="path1" />
  <path
     style="fill:#ff0000;stroke-width:0.677392"
     d="m 128.38495,732.55449 c -13.70497,-2.29128 -24.65104,-12.93243 -27.47738,-26.71198 -1.577701,-7.69193 0.36746,-35.07677 3.82518,-53.85267 19.08132,-103.61411 97.47832,-186.26962 200.09367,-210.9627 20.2806,-4.88027 39.88729,-7.15754 61.62454,-7.15754 14.69838,0 33.27142,1.41692 40.59186,3.0967 12.10732,2.77821 22.35465,12.86242 25.07553,24.67638 1.47715,6.41371 0.66056,14.48788 -2.12378,20.99915 -2.89528,6.77072 -10.85142,14.27141 -17.97732,16.94822 -6.55805,2.4635 -10.73951,2.82986 -19.67401,1.72375 -48.5224,-6.00719 -96.56656,5.18558 -136.62774,31.82994 -15.98562,10.63189 -33.24706,26.30881 -44.70788,40.60386 -15.80453,19.71296 -28.84577,44.23651 -36.02448,67.74266 -2.06176,6.75109 -5.61633,21.83456 -5.6271,23.87807 l -0.008,1.52413 h 149.57923 c 104.50505,0 150.79044,0.22123 153.59865,0.73415 10.77796,1.96861 20.65526,10.05451 24.64424,20.17462 7.72763,19.60516 -4.82078,41.45927 -25.70527,44.76787 -5.37809,0.85202 -337.98099,0.83785 -343.07991,-0.0146 z"
     id="path2"
     transform="scale(0.03)" />
  <path
     style="fill:#ff0000;stroke-width:0.677392"
     d="m 592.18006,631.96842 c -6.08494,-1.63785 -11.10946,-4.50502 -15.3764,-8.77434 -10.58569,-10.59158 -12.76492,-25.70239 -5.63573,-39.07813 2.75028,-5.16005 13.87281,-15.92535 33.09224,-32.02937 25.28569,-21.18698 29.10856,-25.85678 29.09335,-35.5388 -0.0232,-14.73568 -9.00999,-27.18467 -23.02329,-31.89297 -3.75827,-1.26272 -5.50206,-1.4383 -11.90794,-1.19897 -6.90965,0.25816 -7.90358,0.47131 -12.53175,2.68754 -9.30786,4.45711 -15.28023,11.45726 -18.58587,21.78431 -4.07203,12.72134 -11.64981,20.35183 -23.6861,23.85087 -5.31825,1.54607 -14.7615,1.08074 -19.90228,-0.98071 -9.38134,-3.76189 -16.49877,-11.35097 -19.75148,-21.06034 -1.24626,-3.72008 -1.4254,-5.45377 -1.15492,-11.17697 0.39397,-8.33614 2.21331,-14.13593 8.28717,-26.41829 13.82532,-27.95714 40.44019,-47.88995 71.64735,-53.65923 8.63327,-1.59603 26.40866,-1.56328 34.67386,0.0639 36.95062,7.27449 65.70974,32.49152 77.22208,67.71109 3.33784,10.21144 4.6636,18.79827 4.67092,30.25342 0.0192,30.01519 -12.48004,52.36705 -43.93807,78.57266 -13.28784,11.06922 -24.27413,20.59197 -30.41966,26.3673 -10.89124,10.23515 -21.35074,13.59161 -32.77348,10.51703 z"
     id="path3"
     transform="scale(0.03)" />
  <path
     style="fill:#ff0000;stroke-width:0.677392"
     d="m 361.38865,399.50914 c -34.13538,-1.10058 -67.26482,-12.92777 -95.65284,-34.14801 -13.17056,-9.84508 -29.73597,-27.8593 -39.159,-42.58382 -41.18448,-64.35533 -32.95651,-148.8646 19.86014,-203.98304 51.06803,-53.293604 129.51038,-66.903274 194.88396,-33.812176 32.40693,16.403886 57.7271,41.746636 73.87123,73.937106 32.17872,64.16254 19.69357,141.06624 -31.17139,192.0037 -28.22567,28.26589 -68.22824,46.41366 -106.03599,48.10481 -4.28451,0.19166 -8.70449,0.41278 -9.82219,0.49139 -1.11769,0.0786 -4.16596,0.0741 -6.77392,-0.01 z m 24.04742,-67.5878 c 20.48099,-4.02105 36.96621,-12.83399 51.86826,-27.72862 14.80638,-14.79901 23.40536,-30.62573 27.85691,-51.27164 1.74754,-8.1049 1.7449,-30.9992 -0.005,-39.20389 -4.34853,-20.39454 -13.14331,-36.58582 -27.81191,-51.202 -14.7277,-14.67507 -30.00315,-23.01568 -50.37374,-27.50475 -9.77403,-2.1539 -30.74929,-2.15946 -40.61268,-0.0108 -40.64834,8.85507 -71.00849,40.0909 -78.52973,80.79479 -1.78006,9.63342 -1.65351,26.52879 0.27123,36.21139 6.33767,31.88235 25.8113,57.33817 54.67741,71.47399 10.42829,5.10676 19.32982,7.66516 33.8696,9.73448 4.45295,0.63375 23.28298,-0.21194 28.78916,-1.29298 z"
     id="path4"
     transform="scale(0.03)" />
  <path
     style="fill:#00ff00;stroke-width:0.677392"
     d="m 595.08891,732.57311 c -7.80095,-1.36202 -13.60058,-4.50425 -19.15676,-10.37908 -15.05123,-15.91446 -10.30591,-41.84235 9.42435,-51.49361 13.07732,-6.39691 27.09894,-4.26627 37.47146,5.69393 20.60235,19.7834 8.31777,53.94594 -20.28774,56.41876 -2.23539,0.19324 -5.58848,0.0852 -7.45131,-0.24 z"
     id="path5"
     transform="scale(0.03)" />
  <path
     style="fill:#00ff00;stroke-width:0.677392"
     d="m 126.67231,731.85575 c -8.36116,-1.63288 -18.2219,-9.29909 -22.16246,-17.23014 -3.5065,-7.05745 -3.81157,-9.21174 -3.38267,-23.88758 1.06492,-36.43845 9.63221,-71.59013 25.58717,-104.98428 6.01696,-12.59367 10.14728,-19.84001 18.61754,-32.66315 16.09368,-24.36423 37.89406,-47.52805 61.64259,-65.49784 38.56022,-29.17735 87.40749,-48.06716 135.4472,-52.37901 14.99801,-1.34617 46.81724,-0.76131 58.59441,1.077 13.71426,2.14067 22.98041,8.42767 28.32402,19.21759 2.21463,4.47182 2.52477,5.73536 2.73984,11.16232 0.13338,3.36583 -0.12687,7.80282 -0.57835,9.85999 -2.55992,11.66423 -13.51683,21.99343 -25.98642,24.49768 -3.09995,0.62256 -6.05129,0.58829 -13.87127,-0.16109 -15.49248,-1.48462 -42.16926,-1.17376 -53.96398,0.62884 -24.96098,3.81482 -48.71729,11.90194 -69.33011,23.60135 -16.25671,9.22697 -28.43922,18.46363 -42.68958,32.36683 -10.34222,10.09027 -17.67985,18.91303 -25.23278,30.33988 -9.58121,14.49543 -16.779,28.56906 -22.60643,44.20167 -2.90841,7.80207 -8.47302,29.09203 -8.47302,32.4174 v 2.24878 l 151.03058,0.47717 c 164.99591,0.5213 153.47963,0.21413 161.56679,4.30947 4.97519,2.51943 11.48886,9.36257 13.98101,14.68819 4.34331,9.28142 4.173,18.67656 -0.51031,28.1526 -4.23924,8.57751 -11.39929,14.5459 -20.46639,17.06013 -4.28229,1.18745 -11.68455,1.2368 -174.85036,1.16572 -94.80824,-0.0413 -171.73079,-0.33826 -173.42702,-0.66952 z"
     id="path6"
     transform="scale(0.03)" />
  <path
     style="fill:#00ff00;stroke-width:0.677392"
     d="m 595.66245,632.28102 c -11.62798,-1.9418 -20.68043,-8.96838 -25.78534,-20.01478 -1.51109,-3.26982 -1.87993,-5.16034 -2.09578,-10.74211 -0.40628,-10.50659 2.01442,-16.56693 9.98292,-24.99268 4.39112,-4.64308 17.01271,-15.959 31.93405,-28.63056 12.05363,-10.23622 20.05739,-18.34171 21.9655,-22.24467 0.91292,-1.86733 1.40356,-4.55066 1.57846,-8.63258 0.31109,-7.2606 -1.28334,-13.18272 -5.16702,-19.19152 -3.39964,-5.25991 -7.38422,-8.6727 -13.68066,-11.71746 l -5.08044,-2.45674 h -9.48349 c -8.87085,0 -9.73374,0.11729 -13.3574,1.8157 -9.27038,4.34501 -15.23211,11.0896 -19.23481,21.76065 -4.99202,13.30852 -11.12488,19.85578 -22.05388,23.54406 -3.56764,1.204 -5.48867,1.40602 -11.44816,1.20397 -6.66397,-0.22594 -7.5167,-0.41852 -12.28234,-2.77382 -6.31914,-3.12309 -12.25966,-9.18003 -15.54771,-15.8524 -2.03958,-4.1389 -2.28826,-5.28622 -2.495,-11.5114 -0.32185,-9.69078 1.2594,-15.53941 7.6641,-28.34764 6.0141,-12.0271 11.29614,-19.30061 20.43273,-28.13646 11.07153,-10.70709 23.6286,-18.27683 38.15964,-23.00367 11.88843,-3.86721 15.64907,-4.40824 30.50153,-4.38815 14.79267,0.02 19.69529,0.77599 31.48054,4.85428 14.46317,5.005 27.42435,13.1198 38.2562,23.95165 13.74006,13.74006 23.12018,31.01921 27.20895,50.12172 2.00567,9.37035 2.18798,27.03118 0.37278,36.11215 -2.50232,12.5184 -7.65959,23.83813 -15.93904,34.98467 -5.30136,7.13715 -18.83893,20.51333 -31.58868,31.21209 -5.95971,5.00101 -15.07704,12.85611 -20.26073,17.45579 -5.18371,4.59968 -10.98843,9.40118 -12.8994,10.66999 -6.39452,4.24572 -14.28688,6.09392 -21.13752,4.94992 z"
     id="path7"
     transform="scale(0.03)" />
  <path
     style="fill:#00ff00;stroke-width:0.677392"
     d="m 355.29213,398.92967 c -23.64477,-2.29774 -41.23803,-7.15511 -60.96529,-16.83207 -28.03582,-13.75263 -49.78786,-32.93318 -66.88915,-58.9816 -25.60527,-39.00157 -33.10565,-88.06121 -20.49666,-134.06774 7.57423,-27.63616 23.53258,-54.41544 44.45541,-74.59943 26.02465,-25.105644 58.3314,-40.721523 94.75089,-45.79905 9.77073,-1.362215 33.67511,-1.152349 43.69179,0.383586 39.98788,6.131651 76.92591,26.399899 102.39956,56.187604 46.36914,54.22193 53.28303,131.13979 17.25965,192.01575 -16.91462,28.58404 -40.33922,50.20923 -70.20959,64.81629 -23.61626,11.5487 -42.66257,16.16561 -69.4793,16.8421 -6.49426,0.16383 -13.02705,0.17938 -14.51731,0.0346 z m 32.914,-67.28903 c 19.85047,-4.45374 34.03334,-12.38207 49.09666,-27.44539 12.45418,-12.45418 19.12416,-22.74711 24.20625,-37.3544 4.43841,-12.75716 4.87607,-15.797 4.869,-33.81799 -0.006,-15.50995 -0.0915,-16.58442 -1.85658,-23.37002 -3.2491,-12.49036 -7.23509,-21.5892 -13.94721,-31.83743 -4.73082,-7.22311 -20.73212,-23.35997 -27.88162,-28.1178 -10.55009,-7.02087 -22.99868,-12.25767 -35.88727,-15.09688 -7.49617,-1.65131 -32.73859,-1.62107 -40.47355,0.0485 -19.61919,4.23474 -36.22923,13.36472 -50.69115,27.86323 -14.80424,14.84172 -23.79648,31.51505 -27.85705,51.65231 -1.69296,8.39573 -1.67815,29.98176 0.0262,38.16378 3.99335,19.17104 12.75042,36.27195 25.39867,49.5988 15.77788,16.62439 33.44682,26.11079 57.17159,30.69528 7.14045,1.3798 29.93731,0.78798 37.82609,-0.98198 z"
     id="path8"
     transform="scale(0.03)" />
</svg>
